<svg width="771.34" height="539.666" version="1.1" viewBox="0 0 204.084 142.787" xmlns="http://www.w3.org/2000/svg" xmlns:xlink="http://www.w3.org/1999/xlink">
  <defs>
    <linearGradient id="linearGradient32605" x1="-546.625" x2="-484.568" y1="102.862" y2="102.862" gradientUnits="userSpaceOnUse">
      <stop stop-color="#f00000" offset="0"/>
      <stop stop-color="#a30000" offset="1"/>
    </linearGradient>
  </defs>
  <g transform="translate(.177256 -.37148)">
    <g transform="matrix(2.26983 0 0 2.26983 1274.59 -160.424)">
      <path d="m-562.987 70.4332s-0.0283 0.0151-0.0698 0.04153c0.0415-0.02643 0.0698-0.04153 0.0698-0.04153" fill="#ffffff"/>
      <path d="m-562.987 70.4332s-0.0283 0.0151-0.0698 0.04153c0.0415-0.02643 0.0698-0.04153 0.0698-0.04153z" fill="none" stroke="#231f20" stroke-width=".209528"/>
      <path d="m-516.75 129.487-16.375-8.5-11.1225-17.658-2.37746-16.342 9.125-9.375s10.875-1.375 12.125-1.375 9.125 5 9.125 5l8.5-4.75 13.125 0.875 8.5 13.875 1.55656 9.64542-14.3066 19.2296z" fill="url(#linearGradient32605)"/>
      <g transform="matrix(.195012 .0376765 -.0376765 .195012 -459.873 18.9675)">
        <path d="m-309.212 339.21c-3.49192 1.29616-7.04127 2.73186-10.6604 4.29446-28.9536 12.5005-55.1328 39.5936-61.2187 83.6122-6.41789 46.4196 19.3409 90.1737 62.2369 125.71 40.9498 33.9241 96.4603 57.7582 143.108 64.6722 41.545-22.3607 85.8084-63.6695 112.925-109.524 28.4049-48.0337 37.8705-97.9552 16.0783-139.401-25.9439-49.3418-78.3714-65.6795-111.797-59.3109-16.7747 3.19611-34.457 8.40738-48.112 19.0709-9.23883 7.21483-15.7815 16.6884-15.7815 16.6884s-9.67582-4.38888-15.8861-8.80888c-24.713-8.34258-46.4486-6.07548-70.8926 2.99643zm18.2702 25.9088c21.9528-8.02434 45.0979-5.8714 57.9889 4.92228 4.97477 3.54066 11.0032 7.91053 16.5901 11.9923 4.17969-6.07802 8.48413-12.3803 11.4866-16.378 8.42012-12.0575 21.5504-21.9896 39.7258-25.1044 30.2776-5.18873 67.8505 6.86668 88.6328 46.392 17.4567 33.2003 9.87953 73.1843-12.8743 111.662-21.7215 36.7318-57.1811 69.8282-90.4608 87.7403-37.3676-5.53851-81.8345-24.6304-114.637-51.8053-34.362-28.4666-54.9982-63.5155-49.8572-100.7 4.87518-35.2612 25.8472-56.9666 49.0405-66.9801 1.44962-0.62584 2.90149-1.20587 4.36501-1.74087z" fill="#efc864" stroke="#552200" stroke-width="4.59995" style="paint-order:markers fill stroke"/>
      </g>
      <g transform="matrix(1.02164 -.0332141 .0332141 1.02164 -365.516 36.0495)">
        <path d="m-142.695 44.3125c-0.87627-0.149588-2.0268 0.210424-2.67969 0.847656h-2e-3l-0.4336 0.421875c-0.12936 0.126244-0.30172 0.198819-0.48242 0.203125l-0.92773 0.02148c-1.0519 0.02272-1.34611 0.08724-2.16797 0.474609-0.43108 0.203181-0.98973 0.648731-1.39453 1.10352-0.4048 0.454784-0.56646 0.791813-0.59961 0.951172-0.0234 0.121035-0.0289 0.272477-0.0664 0.386718-0.0646 0.196709-0.28117 0.383591-0.43359 0.455078-0.30485 0.142976-0.45172 0.119892-0.73633 0.150391-0.38527 0.04128-1.1719 0.0848-1.84375 0.105469-0.63697 0.0196-1.55976 0.07534-1.98047 0.11914-0.52574 0.05472-1.73464 0.117028-2.79297 0.148438-1.04492 0.03101-2.07089 0.06206-2.27929 0.06836-1e-3 4e-6 -3e-3 4e-6 -4e-3 0l-0.37891 0.0098c-0.31052 8e-3 -0.5907-0.185349-0.69336-0.478516l-0.20312-0.580078h2e-3c-0.26862-0.765918-0.55036-1.24582-1.01953-1.76172-1.15955-1.27501-3.54357-1.74608-5.4375-0.96875-0.28191 0.115705-0.61094 0.280584-0.88281 0.441407-0.27188 0.160822-0.50733 0.350371-0.51758 0.361328-0.0509 0.05446-0.10173 0.118519-0.21289 0.203125-0.11116 0.08461-0.30501 0.171876-0.4707 0.191406-0.3314 0.03906-0.47879-0.03547-0.75196-0.09961-0.59555-0.139844-2.36541-0.05693-3.11523 0.18164-2.59732 0.826374-4.94848 2.84357-5.56641 4.51953-0.47801 1.29649-0.125 2.98102 0.87696 4.05078 0.13174 0.140667 0.24383 0.25043 0.35742 0.402344 0.11359 0.151913 0.22839 0.378787 0.25781 0.615234 0.0588 0.472893-0.084 0.759703-0.24805 1.31055v2e-3l-0.17968 0.601562c-0.0903 0.301373-0.36703 0.508299-0.68165 0.509766l-0.37304 2e-3c-1.18761 0.0056-2.10698 0.374272-2.73633 1.01758-0.53569 0.547563-0.76508 1.01165-0.95898 2.0293-0.0988 0.518546-0.27746 1.25967-0.41993 1.73438v2e-3l-0.23633 0.785156c-0.0861 0.283999-0.3387 0.485291-0.63476 0.50586l-0.63086 0.04492c-1.50298 0.106871-3.0388 1.00803-3.85156 2.25391-0.50057 0.767305-1.00383 2.90709-0.89844 4.04102 0.26203 2.81936 1.70037 4.41469 4.4043 4.9082 1.08195 0.197477 2.67731-0.193092 3.9082-1.05274l0.5-0.349609c0.21707-0.152073 0.50044-0.171615 0.73633-0.05078l0.3789 0.195312c1.26083 0.643221 2.7396 0.745069 4.15039 0.271485 0.55501-0.186312 1.15176-0.272938 2.22657-0.34961 1.5882-0.113293 2.06803-0.198772 2.54297-0.402343 0.20025-0.08586 0.41666-0.174931 0.68164-0.185547 0.26497-0.01062 0.46364 0.041 0.74218 0.105468 0.89697 0.207561 1.25067 0.230413 1.89454 0.132813 0.7795-0.118159 1.60199-0.399735 2.33984-0.804688l0.64648-0.355468c0.22839-0.125053 0.50671-0.116074 0.72657 0.02344l0.42382 0.269531c0.49729 0.315436 0.883 0.423676 1.86719 0.478516 1.02043 0.05687 1.82842-0.06266 2.66797-0.384766l0.68359-0.261718c0.13722-0.05239 0.28725-0.06126 0.42969-0.02539l0.76953 0.193359c0.94848 0.237617 1.6093 0.196937 2.48242-0.144531 0.35861-0.140247 0.57111-0.236466 0.86915-0.273437 0.29803-0.03697 0.5444 0.02808 0.80078 0.0918 0.88229 0.219279 1.27052 0.226142 1.89062 0.06836 0.4938-0.12564 1.25245-0.21252 1.95117-0.246094 0.61808-0.02966 1.55923-0.09368 2.04883-0.138672 0.52907-0.04856 1.60182-0.125245 2.41797-0.175781 0.46055-0.0013 1.06687-0.04749 1.58794-0.155297 0.4075-0.08727 0.82209-0.151116 1.33394-0.04391 0.88602 0.185562 2.2193 0.06458 3.09375-0.289062 0.21146-0.08551 0.38673-0.155226 0.61718-0.181641 0.23046-0.02642 0.47147 0.02353 0.63867 0.08203 0.0342 0.01195 0.5013 0.09453 0.95704 0.113282 0.45573 0.01875 0.96161 3e-3 1.25781-0.03906 0.2994-0.04256 0.94074-0.190034 1.28515-0.298828 0.72427-0.228851 1.11689-0.239809 1.70508-0.0918 0.55498 0.139647 1.20828 0.104645 1.86719-0.125 0.49959-0.174105 0.93134-0.200858 1.4375-0.09375 0.96958 0.20515 2.31209 0.06189 3.25977-0.355469 0.22904-0.100856 0.41911-0.203735 0.72265-0.214843 0.30354-0.01111 0.49692 0.07573 0.73438 0.158203 0.27787 0.09651 1.0225 0.167957 1.75976 0.11914 0.73726-0.04882 1.51008-0.205676 1.91797-0.378906 0.17696-0.07514 0.40775-0.161743 0.66602-0.160156 0.25827 0.0016 0.446 0.05959 0.72656 0.132812 0.21724 0.05666 0.80639 0.132429 1.10156 0.134766 0.53954 4e-3 0.58562-8e-3 1.27344-0.265625l0.8418-0.314453c0.13683-0.05134 0.28611-0.05952 0.42773-0.02344l0.5918 0.152344c6.7e-4 6.65e-4 1e-3 0.0013 2e-3 2e-3 0.57344 0.148811 1.7299 0.148294 2.3086-2e-3 1.21646-0.315816 2.63747-1.25916 3.67968-2.50976 0.97182-1.16614 1.17578-1.69112 1.17578-2.95313 0-0.884466-0.0739-1.13171-0.53906-1.8125l-0.40625-0.59375c-0.10617-0.155291-0.14687-0.34616-0.11328-0.53125l0.10156-0.558593v-2e-3c0.0847-0.464976 0.0306-1.17661-0.10351-1.55664-0.15644-0.44323-0.16496-0.867979-0.16602-1.36133-2e-3 -1.19539-0.32245-1.85909-1.38867-2.7793-0.93114-0.803638-1.8224-1.08928-2.75977-0.962891-0.44076 0.05943-0.89225 0.0016-1.23632-0.171875-1.00248-0.505508-2.49904-0.376778-3.31055 0.242188-0.18288 0.13948-0.74461 0.701151-1.22656 1.25195s-0.95559 1.18691-1.02149 1.31055c-0.13043 0.244689-0.19122 0.399976-0.39844 0.605469-0.1036 0.102746-0.28684 0.222018-0.48828 0.253906-0.20143 0.03189-0.35592-0.01266-0.44726-0.04297-0.0188-0.0062-0.68682-0.0059-1.52149 0.279297-0.45293 0.154759-0.69158 0.24831-0.99414 0.287109-0.30255 0.0388-0.57988-0.03364-0.80859-0.101562-0.33913-0.100723-1.15192-0.142221-2.86719-0.01953-1.71492 0.122671-2.16029 0.278247-2.89648 0.943359l-0.34375 0.308594c-0.2696 0.243125-0.67859 0.245662-0.95118 0.0059l-0.30859-0.271484c-0.10104-0.08871-0.74054-0.365294-1.39453-0.470703s-1.37514-0.07275-1.62305 0.01172c-0.11909 0.04058-0.22925 0.07738-0.3164 0.105469-0.0436 0.01404-0.0818 0.02517-0.11524 0.03516-0.0167 5e-3 -0.0318 0.01012-0.0527 0.01563-0.0105 0.0028-0.0224 0.0054-0.043 0.0098-0.0103 0.0022-0.0226 0.0047-0.043 0.0078s-0.10891 0.0078-0.10937 0.0078c-2.4e-4 0-0.23996-0.04092-0.24024-0.04102s-0.13053-0.0623-0.13086-0.0625c-6.6e-4 -3.97e-4 -0.095-0.06744-0.11914-0.08984-0.0483-0.0448-0.0664-0.06807-0.082-0.08789-0.0313-0.03965-0.0443-0.06171-0.0586-0.08398-0.0286-0.04456-0.0509-0.08447-0.0781-0.132813-0.0545-0.09669-0.11997-0.218305-0.1875-0.351562-0.47075-0.928968-1.76999-1.71484-2.91406-1.71484-0.2168 0-0.32256 0.04031-0.625-0.06836-0.15122-0.05434-0.41874-0.255869-0.4961-0.515624-0.0774-0.259756-0.0157-0.408272 0.01-0.492188 0.11175-0.368818 0.20942-1.00607 0.24609-1.60352 0.0367-0.597445 9.4e-4 -1.1969-0.0488-1.39648v-2e-3l-0.1211-0.486328c-0.0613-0.24603 0.0123-0.506123 0.19336-0.683594l0.63477-0.619141h2e-3c0.49555-0.482025 0.57354-0.593656 0.88672-1.25195 0.52071-1.09454 0.72383-2.03591 0.66602-2.82031-0.0578-0.784403-0.35376-1.43128-0.94727-2.03516-0.36134-0.367641-1.82105-1.12433-2.41992-1.22656z" fill="#efc864" stroke="#552200" stroke-width="2.86121" style="paint-order:markers stroke fill"/>
        <g transform="translate(-10.9031 10.1147)" fill="#552200">
          <g transform="rotate(3.42839 -594.805 -144.775)">
            <path d="m-151.986 20.5019c0.16931-0.304727 0.36319-0.717837 0.58163-1.23934 0.21843-0.521481 0.45726-1.08806 0.71648-1.69974 0.25921-0.611656 0.54615-1.22944 0.86083-1.85334 0.31467-0.623887 0.65281-1.19355 1.01444-1.70899 0.36161-0.515418 0.75089-0.939971 1.16786-1.27366 0.41694-0.333675 0.85804-0.510649 1.32329-0.53093 0.36234-0.01939 0.70756 0.05719 1.03564 0.229674 0.32806 0.172515 0.52322 0.477455 0.58547 0.914801 0.0792 0.480981 0.0205 0.929609-0.17593 1.34588-0.19647 0.416296-0.45593 0.757226-0.77837 1.02279-0.10337 0.09207-0.25523 0.158394-0.45559 0.198846-0.20038 0.04046-0.41188 0.0594-0.63451 0.05661-0.22262-0.0025-0.43662-0.02882-0.642-0.07893-0.20541-0.05014-0.36594-0.131012-0.48163-0.242751 0.23696-0.118803 0.4618-0.267667 0.67454-0.446497 0.21273-0.17881 0.40077-0.374647 0.56412-0.587549 0.16334-0.212862 0.29746-0.430953 0.40237-0.654225 0.10489-0.22327 0.17367-0.439277 0.20635-0.648032 0.0265-0.162788 0.0223-0.296329-0.0126-0.400634-0.035-0.104274-0.1149-0.154692-0.23974-0.151245-0.25013 0.0062-0.517 0.137131-0.80061 0.392603-0.28363 0.255474-0.5718 0.594104-0.8645 1.01588-0.29272 0.421808-0.59162 0.912775-0.89668 1.47291-0.30509 0.560146-0.59847 1.14737-0.88016 1.76167 0.0163 0.237472 0.0726 0.524449 0.16898 0.860927 0.0964 0.336489 0.21786 0.692828 0.36447 1.06902 0.1466 0.376198 0.30968 0.747588 0.48926 1.11418 0.17957 0.3666 0.3662 0.695326 0.5599 0.986168 0.19367 0.290843 0.38637 0.524824 0.57808 0.701952 0.1917 0.177129 0.37247 0.261515 0.54233 0.253139 0.20384-0.01216 0.40075-0.08377 0.59077-0.21438 0.19-0.130584 0.36726-0.296637 0.53177-0.498179 0.16449-0.201531 0.31161-0.429653 0.44138-0.684357 0.12974-0.254711 0.24212-0.513041 0.33711-0.774992 0.11787 0.03216 0.22267 0.09984 0.31442 0.203055 0.0917 0.103221 0.0754 0.304573-0.0489 0.604054-0.32351 0.744788-0.75397 1.30532-1.29136 1.6816-0.53741 0.376283-1.06624 0.583341-1.58647 0.621173-0.46225 0.04291-0.87424-0.02003-1.23596-0.18878-0.36173-0.168728-0.67382-0.400247-0.93627-0.694538-0.26246-0.29429-0.47954-0.639445-0.65125-1.03549-0.17171-0.396047-0.29436-0.812095-0.36792-1.24814-0.28381 0.694569-0.53525 1.34821-0.75433 1.96092-0.21908 0.612724-0.39572 1.12646-0.5299 1.54121l-2.91818 0.341019c0.31718-1.38249 0.63534-2.75646 0.95451-4.12196 0.31916-1.36549 0.61371-2.74801 0.88366-4.1476 0.0484-0.267631 8e-3 -0.445176-0.12226-0.532642-0.12991-0.08745-0.28323-0.05822-0.45997 0.08771-0.47945 0.386915-0.84818 0.817684-1.10619 1.29229-0.25801 0.474631-0.49495 0.958369-0.71082 1.45119-0.13754-0.0069-0.27134-0.05401-0.40139-0.141228-0.13006-0.08726-0.23637-0.19165-0.31894-0.31318-0.0826-0.121502-0.14015-0.248814-0.17276-0.381917-0.0326-0.133084-0.0267-0.253383 0.0178-0.360876 0.16569-0.338755 0.40638-0.669046 0.72208-0.990893 0.3157-0.321837 0.66882-0.616744 1.05936-0.884719 0.39054-0.267948 0.79757-0.492261 1.22111-0.672931 0.42352-0.180651 0.82081-0.29267 1.19184-0.336039 0.65248-0.07628 1.09556 0.03159 1.32921 0.323494 0.23364 0.291915 0.3098 0.676428 0.22848 1.15353-0.13284 0.813318-0.32085 1.66743-0.564 2.56234-0.24317 0.894914-0.44996 1.73417-0.62036 2.51778z"/>
            <path d="m-142.861 19.7434c-0.0668 0.110444-0.12454 0.274018-0.17332 0.490731-0.0488 0.216712-0.072 0.433229-0.0697 0.649532 2e-3 0.216313 0.0328 0.403677 0.0913 0.56211 0.0585 0.158422 0.16722 0.234094 0.32608 0.226997 0.12092-0.03712 0.26448-0.173642 0.4307-0.409636 0.16621-0.236013 0.33959-0.532691 0.52015-0.890065 0.18056-0.357363 0.36557-0.749519 0.55505-1.17648 0.18947-0.426947 0.36878-0.844105 0.53793-1.25146 0.16915-0.407342 0.32177-0.784228 0.45786-1.13067 0.13608-0.346421 0.24422-0.615648 0.32441-0.80769l2.65089-0.292586-1.28822 5.07556c-0.0475 0.176721-0.0327 0.303281 0.0446 0.379669 0.0773 0.07636 0.19011 0.06605 0.33847-0.031 0.11566-0.08202 0.2481-0.191643 0.39735-0.328779 0.14923-0.137115 0.29965-0.288659 0.45127-0.454584 0.1516-0.165934 0.29764-0.331212 0.4381-0.495844 0.14045-0.16462 0.26039-0.309809 0.35982-0.435547 0.13146 0.05317 0.22047 0.156897 0.26704 0.311153 0.0465 0.154248 0.0308 0.287247-0.0473 0.399016-0.17624 0.248489-0.37561 0.494023-0.59811 0.7366-0.2225 0.242588-0.45887 0.464004-0.70911 0.664249-0.25024 0.200246-0.5125 0.370594-0.78677 0.511023-0.27428 0.14043-0.55197 0.227065-0.83308 0.259923-0.58487 0.06834-0.97133-0.04331-1.15936-0.334985-0.18805-0.291675-0.23786-0.693363-0.14947-1.20504l0.86006-3.46978c-0.29611 0.684521-0.5777 1.34735-0.84478 1.98846-0.26709 0.641116-0.53397 1.21098-0.80066 1.70958-0.26669 0.498592-0.53889 0.900947-0.81659 1.20704-0.27771 0.3061-0.58107 0.467065-0.91009 0.482888-0.36497-0.0029-0.66403-0.09914-0.89719-0.288639-0.23316-0.18951-0.4058-0.423057-0.51791-0.700639-0.11212-0.277592-0.17161-0.567069-0.17847-0.86843-7e-3 -0.301371 0.0279-0.564708 0.10416-0.790042z"/>
            <path d="m-132.331 19.385c-0.0933 0.273253-0.24335 0.550246-0.45008 0.83099-0.20673 0.280755-0.43883 0.538726-0.69629 0.773913-0.25747 0.235188-0.52551 0.428908-0.80415 0.581159-0.27864 0.152241-0.54169 0.242824-0.78916 0.271746-0.16856 0.01933-0.33049-0.0012-0.4859-0.06272-0.15541-0.06157-0.28703-0.162946-0.39487-0.304301-0.10785-0.141346-0.18367-0.326375-0.22744-0.555059-0.0438-0.228685-0.0452-0.510685-4e-3 -0.845979l1.0372-4.58434 2.04139-0.238561-1.22353 4.89682c-0.0375 0.164076-0.041 0.304172-0.0104 0.420278 0.0306 0.116115 0.0797 0.170215 0.14735 0.162303 0.17983-0.02132 0.38005-0.161223 0.60059-0.42063 0.22053-0.259397 0.43112-0.554778 0.63177-0.886134 0.20064-0.331364 0.37882-0.660003 0.53452-0.985945 0.1557-0.325931 0.25881-0.565953 0.30935-0.720075l0.71448-2.66577 1.88951-0.220766-1.21484 5.4088c-0.12677 0.573573-0.28779 1.12262-0.48308 1.64715-0.1953 0.524531-0.43963 0.994849-0.733 1.41098-0.29338 0.416135-0.64342 0.761987-1.05011 1.03757-0.4067 0.275597-0.87434 0.444281-1.40291 0.506053-0.36009 0.04173-0.65032 0.02187-0.87082-0.06079-0.2205-0.08262-0.41133-0.228442-0.57249-0.437498-0.0947-0.125671-0.14113-0.254192-0.13926-0.385575 2e-3 -0.131382 0.0306-0.251644 0.0862-0.360785 0.0556-0.109131 0.12727-0.203007 0.21498-0.281628 0.0877-0.07869 0.17653-0.123172 0.26645-0.133681 0.0402 0.05239 0.0644 0.137895 0.0725 0.256632 8e-3 0.118732 0.0331 0.235495 0.0751 0.350277 0.0419 0.114786 0.11597 0.211556 0.22207 0.29031 0.10609 0.07873 0.27173 0.104978 0.49689 0.07866 0.20253-0.02341 0.39224-0.131341 0.5692-0.323019 0.17695-0.191688 0.35374-0.483117 0.53035-0.874289 0.1766-0.39118 0.35578-0.882422 0.53753-1.47374 0.18174-0.591303 0.37348-1.29207 0.57523-2.1023z"/>
            <path d="m-127.281 12.5703c-0.12574-0.09942-0.2074-0.212431-0.24499-0.339047-0.0376-0.126588-0.0324-0.25262 0.0156-0.378085 0.048-0.125456 0.13422-0.241051 0.25878-0.34676 0.12455-0.105681 0.28677-0.181554 0.48668-0.227536 0.21083-0.04768 0.44731-0.07243 0.70945-0.07395 0.26209-0.0021 0.53566-0.0027 0.82072-0.0018 0.28506 1e-3 0.57097-0.01531 0.85774-0.04887 0.28681-0.03308 0.55737-0.107876 0.81179-0.223249 0.25441-0.11538 0.4848-0.290455 0.69115-0.525422 0.20634-0.234947 0.36575-0.552966 0.47824-0.95405l0.64699 0.266744c-0.0539 0.610644-0.18704 1.10503-0.39944 1.48316-0.2124 0.378154-0.46304 0.672471-0.75191 0.88296-0.28888 0.210518-0.59098 0.356982-0.9063 0.439411-0.31534 0.08243-0.59981 0.135575-0.85343 0.15953-0.25362 0.02394-0.45175 0.03597-0.59447 0.0353-0.14269-2.98e-4 -0.1826 0.02442-0.11973 0.07406 0.25011 0.18718 0.50172 0.437078 0.75484 0.749666 0.25311 0.312617 0.46958 0.677852 0.64941 1.09573 0.17982 0.417901 0.30563 0.884801 0.37741 1.40073 0.0718 0.515929 0.0512 1.07118-0.0616 1.66573-0.0805 0.385864-0.19414 0.755497-0.34088 1.10891-0.14675 0.353431-0.34031 0.672478-0.58068 0.957157-0.24038 0.284681-0.5288 0.523577-0.86529 0.71667-0.33649 0.193113-0.73538 0.316624-1.19669 0.370534-0.37101 0.04369-0.70475 0.01685-1.00112-0.07949-0.29639-0.09636-0.55233-0.237454-0.76784-0.423276-0.21551-0.185831-0.38683-0.408043-0.51394-0.666663-0.12712-0.258611-0.21279-0.527972-0.25701-0.80811-0.10249-0.68351-0.0771-1.29638 0.0761-1.8386 0.15321-0.542229 0.41285-1.00295 0.7789-1.38216 0.36606-0.379217 0.8224-0.669133 1.36902-0.869759 0.54662-0.200606 1.16193-0.30104 1.84591-0.301322-0.23715-0.370994-0.53934-0.688997-0.90657-0.953991-0.36724-0.264983-0.78949-0.586168-1.26675-0.963564zm2.48653 2.54793c-0.81444 0.15224-1.42941 0.523404-1.84493 1.1135-0.41552 0.590107-0.57875 1.36443-0.48969 2.32298 0.0268 0.327742 0.13497 0.594489 0.32446 0.800232 0.18947 0.205744 0.41344 0.293511 0.6719 0.26331 0.28148-0.03259 0.52539-0.141127 0.73182-0.324805 0.20642-0.183649 0.37579-0.417149 0.50812-0.700518 0.13232-0.283358 0.22689-0.596498 0.28371-0.939411 0.0568-0.342902 0.076-0.69001 0.0576-1.04135-0.0387-0.622774-0.11968-1.12076-0.24296-1.49393z"/>
          </g>
          <g transform="translate(-52.4186 37.1485)">
            <path d="m-117.107 16.614c-0.17425 0.432356-0.36978 0.965429-0.5866 1.59922-0.21684 0.63381-0.45152 1.29718-0.70406 1.99011-0.25255 0.692937-0.53307 1.39068-0.84158 2.09321-0.30851 0.702561-0.64177 1.33591-0.99976 1.90005-0.358 0.564145-0.74843 1.02836-1.17128 1.39265-0.42285 0.364279-0.87714 0.563355-1.36287 0.597219-0.58742 0.041-1.06376-0.115922-1.42901-0.470631-0.36526-0.354728-0.55579-0.889025-0.57162-1.60291-9e-3 -0.453506 0.0454-0.891527 0.16351-1.31406 0.11811-0.422545 0.26726-0.72531 0.44745-0.908312 0.0852-0.08527 0.20441-0.167268 0.35775-0.246028 0.15333-0.07877 0.32747-0.144861 0.52241-0.198298 0.19494-0.05342 0.39392-0.08996 0.59692-0.109722 0.20301-0.01967 0.40209-0.01367 0.59727 0.01818-0.17943 0.194038-0.34823 0.418587-0.50642 0.673656-0.1582 0.255079-0.29566 0.522917-0.41241 0.803494-0.11675 0.280597-0.2076 0.565012-0.27254 0.853245-0.065 0.288244-0.0827 0.561926-0.0532 0.821057 0.0284 0.247791 0.10096 0.435674 0.21779 0.563663 0.11683 0.12799 0.27654 0.179218 0.47914 0.153656 0.29292-0.03175 0.60166-0.243037 0.92614-0.634587 0.32447-0.391549 0.65019-0.88823 0.97716-1.49005 0.32696-0.601813 0.64076-1.2707 0.94141-2.00665 0.30063-0.73594 0.57054-1.4642 0.80973-2.18478 0.23918-0.72057 0.43881-1.39855 0.5989-2.03395 0.16007-0.635379 0.26051-1.14745 0.30131-1.53621 0.35021-0.02471 0.72906-0.04515 1.13646-0.06234 0.40738-0.01719 0.81281-0.02274 1.21629-0.01669 0.40345 6e-3 0.79376 0.02705 1.17093 0.06306 0.37714 0.03601 0.72203 0.100014 1.03467 0.191829-0.34973 0.682917-0.67541 1.38389-0.97704 2.10293-0.30166 0.719052-0.56422 1.42973-0.78769 2.13207-0.22349 0.70234-0.39182 1.38099-0.50497 2.03597-0.11317 0.654991-0.15046 1.25912-0.11187 1.81242 0.0189 0.2713 0.0944 0.498827 0.22633 0.682571 0.13197 0.183755 0.29475 0.280131 0.48833 0.289154 0.25014 0.0055 0.48661-0.06212 0.70945-0.202486 0.22281-0.140422 0.4252-0.330503 0.60716-0.570271 0.18193-0.239747 0.34984-0.51819 0.50372-0.835311 0.15385-0.317129 0.29278-0.644727 0.41679-0.982813 0.12726 0.03678 0.2396 0.10289 0.33701 0.198119 0.0974 0.09522 0.11861 0.235695 0.0637 0.42138-0.1299 0.417474-0.29053 0.800368-0.48187 1.14869-0.19136 0.348325-0.42014 0.648055-0.68632 0.899229-0.26621 0.251175-0.57874 0.448864-0.93761 0.593038-0.35888 0.144195-0.77076 0.221237-1.23563 0.231126-0.50974 0.01261-0.9582-0.151944-1.34542-0.493872-0.38723-0.341926-0.60879-0.913817-0.66469-1.71567-0.0315-0.451941-0.0159-0.96103 0.0468-1.52728 0.0627-0.566235 0.16134-1.14634 0.29591-1.74029 0.13456-0.593945 0.29474-1.1869 0.48054-1.77889 0.18579-0.59196 0.38565-1.145 0.59957-1.65909z"/>
            <path d="m-104.074 18.0893c0.0844-0.09657 0.17905-0.205442 0.28407-0.326389 0.10501-0.120936 0.19993-0.224026 0.28475-0.30927 0.16452 0.07931 0.3919 0.165634 0.68212 0.259013 0.29021 0.09339 0.57649 0.130246 0.85884 0.11055 0.13579-0.0097 0.29326-0.03178 0.47233-0.06696 0.17906-0.03518 0.34652-0.07536 0.50238-0.120526-0.0761 0.209694-0.17045 0.403587-0.2829 0.581688-0.11248 0.178104-0.33302 0.352395-0.66165 0.522873-0.10913 0.06446-0.25608 0.114398-0.44082 0.149988-0.18476 0.03561-0.34567 0.04675-0.48273 0.03343 0.0684 0.494754 0.0618 1.05146-0.0199 1.67013-0.0818 0.618671-0.25903 1.20996-0.53182 1.77388-0.2728 0.563917-0.65055 1.04716-1.13326 1.44974-0.48271 0.402588-1.09121 0.629482-1.82548 0.680674-0.37302 0.02587-0.7052-0.01609-0.9966-0.126418-0.2914-0.110271-0.54039-0.263174-0.74697-0.458689-0.20658-0.195524-0.36733-0.425505-0.48224-0.689942-0.11492-0.264437-0.1879-0.537431-0.21896-0.818963-0.0201-0.123655-0.0312-0.242137-0.0334-0.355431-2e-3 -0.113294-2e-3 -0.226885 2e-3 -0.340753l-0.86407 0.06025-0.78334 2.93224-2.18578 0.152374 1.64442-6.21022 2.20285-0.153569-0.6774 2.49927 0.79634-0.05552c0.12592-0.474344 0.33218-0.894632 0.61876-1.26084 0.28658-0.366211 0.63423-0.671388 1.04294-0.91553 0.40871-0.244131 0.86447-0.423479 1.36726-0.538045 0.50279-0.114499 1.03889-0.157584 1.60831-0.128974zm-0.1683 0.761007c-0.82066 0.114055-1.45515 0.456277-1.90346 1.02671-0.44833 0.570446-0.65022 1.33648-0.60568 2.29813 0.0114 0.328296 0.10693 0.599717 0.28644 0.814274 0.1795 0.214549 0.39921 0.312763 0.65915 0.29464 0.32751-0.02262 0.60724-0.161496 0.83926-0.416011 0.23201-0.254504 0.41808-0.556901 0.55821-0.907182 0.14011-0.350298 0.23958-0.714807 0.2984-1.09355 0.0588-0.378735 0.0844-0.704149 0.0769-0.97626-2e-3 -0.181404-0.0209-0.375781-0.0581-0.583111-0.0372-0.207329-0.0875-0.359868-0.15116-0.457635z"/>
            <path d="m-99.5166 15.7965c-0.120959-0.105178-0.197252-0.221885-0.228879-0.350113-0.03163-0.128208-0.02057-0.253861 0.03321-0.376953 0.05377-0.123082 0.145332-0.234514 0.27469-0.334298 0.12936-0.09968 0.294944-0.16796 0.496778-0.204549 0.212832-0.03773 0.450202-0.05146 0.712119-0.04112 0.261897 0.01015 0.5352 0.02238 0.819903 0.03658 0.2847 0.01431 0.571065 0.0114 0.859091-0.0087 0.288032-0.01993 0.561797-0.08175 0.821334-0.185085 0.259522-0.103344 0.497838-0.267494 0.714939-0.492563 0.217088-0.22505 0.39118-0.535269 0.522275-0.930668l0.633827 0.29668c-0.08236 0.607451-0.238456 1.09509-0.468279 1.46288-0.229839 0.367822-0.493953 0.650105-0.792341 0.846868-0.2984 0.196803-0.607013 0.328989-0.925837 0.396598-0.31884 0.06759-0.605489 0.107385-0.859943 0.119477-0.254465 0.01209-0.452957 0.01457-0.595478 0.0074-0.142525-7e-3 -0.183519 0.01598-0.123055 0.0684 0.24109 0.198663 0.480755 0.46004 0.718995 0.784111 0.23823 0.3241 0.437403 0.699052 0.597522 1.12487 0.160107 0.425841 0.263961 0.89811 0.311565 1.41683 0.04759 0.518717 0.0011 1.0724-0.139318 1.66105-0.09845 0.38168-0.229217 0.745606-0.39231 1.09177-0.163103 0.346184-0.371355 0.655848-0.624755 0.928993-0.253412 0.273137-0.552685 0.498298-0.897821 0.675472-0.345144 0.177176-0.749374 0.281913-1.21269 0.314223-0.372672 0.02584-0.704762-0.01604-0.996312-0.126169-0.29156-0.110096-0.54064-0.262991-0.74723-0.458675-0.2066-0.195704-0.36734-0.425675-0.48224-0.689952-0.1149-0.264258-0.18789-0.537327-0.21898-0.819226-0.0704-0.687554-0.0165-1.29857 0.16188-1.83305 0.17837-0.534475 0.45925-0.982558 0.84262-1.34427 0.38337-0.361699 0.852744-0.62998 1.40814-0.804853 0.555395-0.174862 1.17472-0.246442 1.85797-0.21473-0.219565-0.381676-0.506574-0.713446-0.861026-0.995301-0.354458-0.281855-0.761244-0.622414-1.22036-1.02169zm2.36481 2.66129c-0.820661 0.114054-1.4523 0.45607-1.89493 1.02611-0.44263 0.570054-0.641852 1.3359-0.597663 2.29757 0.01148 0.328635 0.107053 0.600142 0.286718 0.814515 0.179661 0.214372 0.399284 0.312499 0.658872 0.294409 0.282702-0.01943 0.531413-0.11638 0.746189-0.290271 0.214776-0.173806 0.394872-0.39914 0.54029-0.676022 0.145408-0.276871 0.254503-0.585238 0.327285-0.92513 0.07277-0.339872 0.108157-0.685706 0.106148-1.03753-0.0096-0.623896-0.06719-1.12511-0.172903-1.50365z"/>
            <path d="m-94.1101 23.7625c-0.384367 0.02691-0.68673-0.03441-0.907053-0.183573-0.220325-0.149187-0.342696-0.398893-0.367117-0.749153-0.01182-0.169248 0.01083-0.414794 0.06789-0.736606 0.05706-0.321792 0.134538-0.676293 0.232423-1.06348 0.09788-0.387172 0.206279-0.786344 0.325182-1.19752 0.118903-0.411152 0.228679-0.790504 0.329329-1.13804 0.100648-0.347532 0.188056-0.640282 0.262226-0.878241s0.115365-0.379904 0.123594-0.425865l2.08509-0.128307-1.44855 5.10694c-0.03651 0.127251-0.02923 0.231701 0.02188 0.313356 0.05106 0.08162 0.121767 0.119337 0.212089 0.113036 0.160582 0.02272 0.351879-0.04192 0.573927-0.193562 0.222027-0.151788 0.436099-0.336977 0.642219-0.555547 0.206111-0.218578 0.388655-0.449805 0.547631-0.69368 0.158967-0.243873 0.261205-0.446894 0.306713-0.609062l1.05775-3.63206 2.03442-0.124771-1.35311 5.01507c-0.04474 0.173204-0.0302 0.299841 0.04366 0.37991 0.07382 0.08009 0.186912 0.07497 0.339287-0.01518 0.108354-0.07547 0.240076-0.181028 0.395167-0.316722 0.155076-0.135693 0.309458-0.282683 0.463147-0.440972 0.153674-0.158278 0.301382-0.31901 0.443126-0.482178 0.141728-0.163165 0.26519-0.305229 0.370387-0.426183 0.128826 0.05919 0.215745 0.166829 0.260741 0.322688 0.04498 0.155861 0.02584 0.287794-0.05736 0.395783-0.187657 0.23998-0.381298 0.474751-0.580924 0.704312-0.199641 0.229562-0.414983 0.437526-0.646028 0.623891-0.231057 0.186366-0.475561 0.342501-0.733513 0.468386-0.257962 0.125896-0.528109 0.198681-0.810439 0.218367-0.29372 0.02045-0.528249-0.0058-0.703592-0.07877-0.175355-0.073-0.307705-0.180144-0.397056-0.32149-0.08935-0.141335-0.138278-0.313824-0.146755-0.517438-0.0085-0.203611 0.01239-0.432054 0.06264-0.685319-0.488374 0.646852-0.971858 1.12032-1.45045 1.42044-0.478601 0.3001-1.01144 0.470618-1.59852 0.511543z"/>
            <path d="m-80.8213 17.5577c0.03211-0.354175-0.04605-0.621176-0.234592-0.800985-0.188519-0.179801-0.463588-0.257093-0.825206-0.231888-0.19206 0.01297-0.407687 0.05399-0.647004 0.121732-0.239327 0.06775-0.474614 0.152356-0.705873 0.25369-0.231263 0.101401-0.442013 0.212509-0.632238 0.333504-0.190233 0.121005-0.326566 0.241181-0.408999 0.360547l0.197701-0.831134-2.0503 0.142914-1.64442 6.21023 2.08391-0.145255 1.20779-4.17045c0.09574-0.256428 0.211919-0.463189 0.348539-0.620292 0.136614-0.157084 0.272747-0.280123 0.408403-0.369087 0.135653-0.08889 0.267669-0.149241 0.396063-0.180895 0.128386-0.03165 0.237738-0.05064 0.328068-0.05688 0.0903-0.0064 0.150312 0.04063 0.179987 0.14074 0.02966 0.10013 0.03075 0.196528 0.0033 0.289191l-1.296 4.85782 2.06737-0.144109 0.844137-2.78319c0.07333-0.254863 0.172616-0.460455 0.297864-0.616756 0.125233-0.156309 0.255686-0.278852 0.391357-0.367638 0.135656-0.08879 0.264833-0.148884 0.387531-0.180298 0.122675-0.0315 0.223505-0.0498 0.302443-0.05547 0.09065-0.0065 0.144147 0.02679 0.160484 0.0995 0.0163 0.0726 0.01073 0.155474-0.01671 0.248495l-0.535639 1.84196c-0.192285 0.660496-0.159405 1.13209 0.09864 1.41478 0.258031 0.282692 0.658182 0.405129 1.20045 0.367321 0.417815-0.02905 0.795262-0.109249 1.13235-0.240546 0.337074-0.131238 0.648623-0.303297 0.934646-0.516187 0.286002-0.212896 0.550222-0.452669 0.792659-0.719335 0.242415-0.266655 0.477664-0.555516 0.705751-0.866555 0.0518-0.07178 0.07818-0.141849 0.07915-0.209988 9.2e-4 -0.06813-0.01751-0.129292-0.05539-0.183463-0.03791-0.05422-0.0867-0.101856-0.146374-0.143081-0.05969-0.04121-0.118415-0.07105-0.176157-0.08955-0.188455 0.228598-0.376692 0.460141-0.564714 0.694602-0.188045 0.234472-0.377454 0.449199-0.568229 0.644189-0.190796 0.195001-0.38102 0.355825-0.57067 0.482491-0.189669 0.126677-0.369303 0.19593-0.538901 0.207759-0.06795 0.0044-0.127015-0.02799-0.177289-0.09832-0.05028-0.07032-0.05228-0.180822-6e-3 -0.331616l0.592066-2.25476c0.100835-0.506202 0.02646-0.881194-0.223147-1.12499-0.249621-0.243789-0.600398-0.349921-1.05233-0.318415-0.192063 0.01297-0.402288 0.05074-0.630789 0.112087-0.228517 0.06135-0.455563 0.142449-0.681131 0.243382-0.22558 0.100971-0.435343 0.22625-0.629283 0.375903-0.193952 0.149673-0.352356 0.319712-0.475211 0.510135 0.01138-7.84e-4 0.03647-0.04809 0.07534-0.141645 0.03885-0.09361 0.07897-0.209972 0.120379-0.349 0.0414-0.139017 0.07671-0.283339 0.105951-0.432957 0.02922-0.149597 0.04599-0.275644 0.05027-0.378148zm3.36365-4.01418-0.655883 1.57807c-0.997815-0.146235-1.93453-0.149078-2.81014-0.0085-0.87562 0.140634-1.74158 0.501708-2.59787 1.08344l-0.597442-0.758542c0.897505-0.800427 1.91717-1.35674 3.05899-1.66898 1.14181-0.312225 2.34259-0.387368 3.60234-0.225439z"/>
            <path d="m-73.9871 18.4265c0.175905-0.08047 0.367019-0.187532 0.573349-0.32108 0.206326-0.133548 0.397422-0.28309 0.57329-0.448646 0.175861-0.165546 0.320223-0.334526 0.433086-0.506942 0.112854-0.172415 0.164166-0.332038 0.153929-0.478907-0.01022-0.146851-0.08327-0.215537-0.219095-0.206074-0.157913 0.01077-0.311218 0.08992-0.459992 0.236541-0.148779 0.146683-0.289707 0.323913-0.422787 0.531683-0.133087 0.20777-0.25448 0.420527-0.364174 0.638279-0.109702 0.217744-0.198904 0.402789-0.267606 0.555146zm3.67746 1.463c-0.205326 0.30947-0.437143 0.606562-0.695452 0.891304-0.258317 0.284753-0.538919 0.534242-0.841808 0.748478-0.302897 0.214237-0.631132 0.390412-0.984709 0.528517-0.353584 0.138096-0.728078 0.22094-1.12348 0.248503-0.327518 0.02262-0.63517 0.0046-0.923022-0.05489-0.287853-0.05941-0.539383-0.166788-0.754588-0.322038-0.215206-0.155251-0.388313-0.358828-0.519325-0.610712-0.13101-0.251884-0.20912-0.558624-0.234336-0.920259-0.03858-0.553294 0.01718-1.09628 0.167277-1.62896 0.150094-0.532673 0.389042-1.01195 0.716841-1.43786 0.327797-0.425895 0.746114-0.77575 1.25495-1.04956 0.508833-0.273805 1.10212-0.434327 1.77987-0.481595 0.372664-0.02584 0.711742 0.03551 1.01727 0.184468 0.305521 0.14896 0.468522 0.370299 0.489006 0.664007 0.0099 0.305886-0.09489 0.594126-0.31435 0.864729-0.219467 0.270604-0.492132 0.510975-0.817997 0.721094-0.325873 0.210129-0.674044 0.384826-1.04451 0.52411-0.370475 0.139284-0.707463 0.230931-1.01096 0.274952-0.09654 0.245063-0.1594 0.524671-0.188591 0.838813-0.0292 0.314153-0.03552 0.589817-0.01898 0.826992 0.0071 0.10169 0.02567 0.205441 0.05574 0.311258 0.03006 0.105808 0.07936 0.201703 0.147882 0.287684 0.06853 0.08608 0.161201 0.153304 0.278045 0.201974 0.116846 0.04874 0.271272 0.06634 0.463288 0.05293 0.248558-0.01723 0.503273-0.108858 0.764168-0.274635 0.260889-0.165767 0.513733-0.364993 0.758531-0.597705 0.24479-0.232703 0.477109-0.481606 0.69696-0.746692 0.219842-0.265085 0.413166-0.505636 0.579975-0.721652 0.139419 0.04713 0.240062 0.147898 0.301936 0.30241 0.06187 0.154522 0.06199 0.279305 3.76e-4 0.374349z"/>
            <path d="m-69.3801 19.0245c-0.07185 0.107199-0.137206 0.267899-0.196056 0.4821-0.05884 0.214201-0.09217 0.429393-0.09996 0.645567-0.0078 0.216192 0.01384 0.404777 0.06491 0.565754 0.05105 0.160986 0.156105 0.241657 0.31513 0.241994 0.122511-0.03148 0.272302-0.161106 0.449358-0.389078 0.177052-0.227991 0.364107-0.516246 0.561162-0.864802 0.197051-0.348536 0.400184-0.731616 0.609397-1.14926 0.209208-0.417622 0.407808-0.825956 0.595805-1.22496 0.18799-0.398997 0.358045-0.768346 0.510167-1.10805 0.152114-0.339683 0.272712-0.603567 0.361793-0.791653l2.66166-0.168491-1.52391 5.00983c-0.05575 0.174313-0.0468 0.301429 0.02683 0.381348 0.07363 0.07992 0.18682 0.07488 0.339546-0.0152 0.119368-0.07649 0.256785-0.17985 0.412272-0.309857 0.155473-0.129996 0.312812-0.27434 0.472016-0.433005 0.15919-0.158673 0.312784-0.316954 0.460785-0.474841 0.147985-0.157887 0.274576-0.297311 0.379773-0.418264 0.128825 0.05919 0.2129 0.167024 0.252208 0.323276 0.03929 0.156262 0.0174 0.288382-0.0659 0.39638-0.187655 0.23999-0.398275 0.475938-0.631858 0.707862-0.233597 0.231926-0.480052 0.442058-0.739364 0.630394-0.259325 0.188338-0.529252 0.346249-0.809783 0.473714-0.280544 0.127466-0.56198 0.201037-0.844311 0.220722-0.587425 0.041-0.968246-0.08863-1.14246-0.388769-0.174215-0.300143-0.205212-0.703718-0.09302-1.21071l1.02121-3.42581c-0.327763 0.669937-0.64001 1.31888-0.936744 1.94682-0.296742 0.627949-0.589955 1.18472-0.879641 1.67031-0.289691 0.485589-0.580385 0.87479-0.872083 1.16758-0.291702 0.292787-0.602253 0.439405-0.931655 0.439854-0.364434-0.02003-0.658671-0.13005-0.882724-0.330237-0.224055-0.200196-0.385596-0.441551-0.484621-0.724075-0.09902-0.282514-0.144931-0.574456-0.137704-0.875808 0.0072-0.301371 0.0542-0.562797 0.14095-0.784318z"/>
            <path d="m-60.7824 17.5058c0.175905-0.08047 0.367018-0.187532 0.573348-0.32109 0.206325-0.133538 0.397422-0.28309 0.573291-0.448636 0.175861-0.165546 0.320222-0.334526 0.433085-0.506942 0.112854-0.172415 0.164166-0.332038 0.15393-0.478907-0.01022-0.146851-0.08327-0.215547-0.219096-0.206074-0.157913 0.01077-0.311217 0.08992-0.459993 0.236532-0.148777 0.146692-0.289705 0.323922-0.422786 0.531692-0.133088 0.20777-0.254479 0.420527-0.364174 0.638279-0.109701 0.217744-0.198903 0.402789-0.267605 0.555146zm3.67746 1.463c-0.205326 0.30947-0.437144 0.606562-0.695451 0.891304-0.258318 0.284753-0.538919 0.534242-0.841809 0.748478-0.302896 0.214237-0.631133 0.390412-0.984708 0.528517-0.353585 0.138096-0.728078 0.22094-1.12348 0.248503-0.327518 0.02262-0.635171 0.0046-0.923022-0.0549-0.287853-0.05941-0.539383-0.166779-0.754588-0.322029-0.215206-0.155251-0.388314-0.358828-0.519325-0.610712-0.13101-0.251884-0.209122-0.558633-0.234335-0.920259-0.03858-0.553294 0.01718-1.09628 0.167276-1.62896 0.150094-0.532673 0.389042-1.01196 0.71684-1.43787 0.327798-0.425895 0.746115-0.775749 1.25495-1.04955 0.508832-0.273805 1.10212-0.434327 1.77987-0.481595 0.372665-0.02584 0.711743 0.03551 1.01727 0.184468 0.30552 0.14896 0.468522 0.370299 0.489006 0.664007 0.0099 0.305886-0.09489 0.594117-0.31435 0.864729-0.219466 0.270604-0.492131 0.510975-0.817997 0.721094-0.325873 0.210129-0.674043 0.384826-1.04451 0.5241-0.370475 0.139284-0.707461 0.230941-1.01096 0.274962-0.09654 0.245063-0.159401 0.524671-0.188591 0.838813-0.0292 0.314153-0.03552 0.589817-0.01898 0.826992 0.0071 0.10169 0.02567 0.205441 0.05574 0.311258 0.03007 0.105808 0.07936 0.201703 0.147883 0.287684 0.06853 0.08608 0.161201 0.153303 0.278044 0.201965 0.116845 0.04874 0.271271 0.06634 0.463289 0.05293 0.248558-0.01723 0.503273-0.108858 0.764167-0.274635 0.26089-0.165767 0.513733-0.364993 0.758531-0.597705 0.244789-0.232703 0.477109-0.481606 0.69696-0.746702 0.219842-0.265075 0.413167-0.505626 0.579976-0.721642 0.139419 0.04713 0.240061 0.147889 0.301935 0.30241 0.06187 0.154512 0.06199 0.279305 3.86e-4 0.374348z"/>
            <path d="m-53.915 10.9652c0.03736 0.372219 0.182928 0.668644 0.436642 0.889266 0.25371 0.22065 0.544314 0.359301 0.871815 0.415962 0.327486 0.0566 0.659771 0.01924 0.996847-0.112202 0.337068-0.131389 0.607087-0.368721 0.81006-0.711966l0.528392 0.491089c-0.115353 0.303192-0.298467 0.568482-0.549338 0.795898-0.250885 0.227417-0.536329 0.406233-0.856332 0.536447-0.320014 0.130224-0.654752 0.213145-1.00422 0.248762-0.349435 0.03601-0.685496 0.01934-1.00808-0.04897-0.32259-0.06822-0.615254-0.195423-0.877984-0.381487-0.262736-0.186063-0.455969-0.433602-0.579704-0.742636zm-2.16969 10.146c-0.384367 0.02691-0.68673-0.03442-0.907053-0.183583-0.220325-0.149178-0.342696-0.398883-0.367118-0.749143-0.01182-0.169258 0.01083-0.414795 0.06789-0.736606 0.05707-0.321803 0.134538-0.676294 0.232423-1.06348 0.09789-0.387172 0.206279-0.786344 0.325182-1.19752 0.118902-0.411161 0.228677-0.790513 0.329328-1.13805 0.100648-0.347531 0.188057-0.640271 0.262226-0.87824 0.07417-0.237949 0.115365-0.379904 0.123593-0.425865l2.08509-0.128307-1.44855 5.10694c-0.03651 0.127261-0.02923 0.231711 0.02188 0.313365 0.05106 0.08162 0.121767 0.119328 0.212089 0.113037 0.160582 0.02272 0.351879-0.04192 0.573926-0.193572 0.222028-0.151788 0.4361-0.336967 0.642218-0.555547 0.206111-0.218578 0.388655-0.449805 0.547631-0.69368 0.158969-0.243864 0.261208-0.446885 0.306715-0.609062l1.05775-3.63206 2.03442-0.124771-1.35311 5.01507c-0.04474 0.173204-0.03019 0.299841 0.04366 0.37991 0.07382 0.08009 0.186913 0.07497 0.339288-0.01518 0.108353-0.07547 0.240076-0.181028 0.395166-0.316722 0.155076-0.135693 0.309458-0.282683 0.463146-0.440972 0.153675-0.158279 0.301384-0.319001 0.443126-0.482178 0.14173-0.163156 0.265191-0.305229 0.370389-0.426173 0.128825 0.05919 0.215744 0.166819 0.26074 0.322678 0.04497 0.155871 0.02584 0.287794-0.05736 0.395783-0.187656 0.23999-0.381298 0.474761-0.580924 0.704312-0.199641 0.229562-0.414984 0.437526-0.646028 0.623891-0.231057 0.186366-0.47556 0.342501-0.733512 0.468386-0.257962 0.125905-0.528109 0.198681-0.81044 0.218367-0.293719 0.02045-0.528248-0.0058-0.703591-0.07876-0.175354-0.073-0.307705-0.180153-0.397056-0.321499-0.08936-0.141335-0.138278-0.313814-0.146754-0.517429-0.0085-0.20362 0.01239-0.432063 0.06264-0.685328-0.488373 0.646852-0.971856 1.12033-1.45045 1.42044-0.4786 0.3001-1.01144 0.470617-1.59852 0.511553z"/>
          </g>
        </g>
      </g>
    </g>
  </g>
</svg>
