<svg width="69.9441" height="60.2854" version="1.1" viewBox="0 0 18.506 15.9505" xmlns="http://www.w3.org/2000/svg">
 <g transform="translate(-56.4766 -66.4847)">
  <path d="m61.427 66.6668c-0.193093 0.03207-0.390541 0.07076-0.592855 0.115311-1.61853 0.356362-3.23937 1.49331-3.99219 3.70387-0.793881 2.33113 0.09903 4.84549 1.95808 7.10667 1.77471 2.15859 4.40128 3.94172 6.73926 4.76347 2.3665-0.7396 5.06215-2.42976 6.91836-4.5254 1.94444-2.19524 2.93048-4.67667 2.21922-7.03239-0.846758-2.80451-3.38899-4.17011-5.17713-4.17472-0.897383-0.0023-1.86168 0.09031-2.67254 0.504392-0.548616 0.280165-0.980638 0.703751-0.980638 0.703751s-0.455492-0.322907-0.731863-0.612873c-1.19195-0.676805-2.33604-0.776503-3.68771-0.552092zm0.68441 1.51894c1.21269-0.195193 2.38544 0.146616 2.94298 0.832041 0.221387 0.232279 0.488872 0.517845 0.73645 0.784145 0.276249-0.271942 0.561169-0.554211 0.755939-0.730552 0.554648-0.538193 1.33114-0.919769 2.29999-0.899301 1.61395 0.0341 3.04338 1.30052 3.60959 3.57791 0.402708 1.61978-0.05275 3.40685-1.61034 5.16535-1.48692 1.67871-3.31237 3.19995-5.20806 3.79241-1.87284-0.658272-3.70961-2.01981-5.13124-3.74895-1.4892-1.81133-1.83708-3.89228-1.50182-5.35873 0.416909-1.82359 1.56743-3.08254 2.86395-3.36801 0.08103-0.01784 0.161728-0.0333 0.242574-0.04631z" fill="none" stroke="#ffffff" stroke-width=".2" style="paint-order:markers fill stroke"/>
 </g>
</svg>
